<svg xmlns="http://www.w3.org/2000/svg" viewBox="0 0 216 216"><defs><style>.cls-1{fill:#f7542e;}.cls-2{fill:#f9f9f9;}</style></defs><g id="Capa_2" data-name="Capa 2"><g id="Capa_1-2" data-name="Capa 1"><circle class="cls-1" cx="108" cy="108" r="108"/><path class="cls-2" d="M141,110.67a27.19,27.19,0,0,0-8.16-5.93,23.57,23.57,0,0,0,5.82-4.48,20.75,20.75,0,0,0,5.61-14.69,23.46,23.46,0,0,0-13-21.36q-6.34-3.34-15.42-3.34H68.5V77.48h6.89v61H68.5v16.61h47.08q10,0,17.16-3.6a25.77,25.77,0,0,0,14.76-23.77A24.12,24.12,0,0,0,141,110.67ZM96.09,77.16h15.75a12.93,12.93,0,0,1,8.42,2.6c2.13,1.73,3.2,4.34,3.2,7.81s-1.07,6.21-3.2,8a13,13,0,0,1-8.42,2.6H96.09Zm27.1,58.08q-3.47,3.62-9.61,3.61H96.09V114h17.49a14.27,14.27,0,0,1,7,1.6,11.49,11.49,0,0,1,4.47,4.41,12.66,12.66,0,0,1,1.6,6.41A12.19,12.19,0,0,1,123.19,135.24Z"/></g></g></svg>