<svg xmlns="http://www.w3.org/2000/svg" viewBox="0 0 337.42 116.56"><defs><style>.cls-1{fill:#f7542e;}.cls-2{fill:#f9f9f9;}.cls-3{fill:#373c40;}</style></defs><g id="Capa_2" data-name="Capa 2"><g id="Capa_1-2" data-name="Capa 1"><circle class="cls-1" cx="58.28" cy="58.28" r="58.28"/><path class="cls-2" d="M76.1,59.72a15,15,0,0,0-4.4-3.2,12.55,12.55,0,0,0,3.13-2.42,11.17,11.17,0,0,0,3-7.92,12.64,12.64,0,0,0-7-11.53,17.6,17.6,0,0,0-8.32-1.81H37v9h3.71V74.75H37v9h25.4a20.32,20.32,0,0,0,9.26-1.94,14.27,14.27,0,0,0,5.91-5.3,14.09,14.09,0,0,0,2-7.53A13,13,0,0,0,76.1,59.72ZM51.85,41.64h8.5A7,7,0,0,1,64.89,43a5.1,5.1,0,0,1,1.73,4.22,5.16,5.16,0,0,1-1.73,4.28A7,7,0,0,1,60.35,53h-8.5ZM66.48,73a6.86,6.86,0,0,1-5.19,2H51.85V61.52h9.44a7.6,7.6,0,0,1,3.78.87,6.09,6.09,0,0,1,2.42,2.38,6.9,6.9,0,0,1,.86,3.45A6.6,6.6,0,0,1,66.48,73Z"/><path class="cls-3" d="M184.52,59.85a16.31,16.31,0,0,0-4.28-3,14.7,14.7,0,0,0,3-2.2,12.9,12.9,0,0,0,4-9.73A14.64,14.64,0,0,0,185.1,37a15.23,15.23,0,0,0-6.17-5.55,20.47,20.47,0,0,0-9.49-2.07H142.76V88.15h26.1a23.75,23.75,0,0,0,10.65-2.23,17.26,17.26,0,0,0,7-6.09A15.93,15.93,0,0,0,189,71,15,15,0,0,0,184.52,59.85ZM165.88,40.42a7.56,7.56,0,0,1,4.76,1.45,5.36,5.36,0,0,1,1.87,4.52,5.33,5.33,0,0,1-1.87,4.51,7.5,7.5,0,0,1-4.76,1.45h-8.54V40.42Zm6.42,34.76a7.62,7.62,0,0,1-5.51,1.95h-9.45V63h9.45a8.7,8.7,0,0,1,4,.87,6.21,6.21,0,0,1,2.61,2.49,7.37,7.37,0,0,1,.91,3.69A6.73,6.73,0,0,1,172.3,75.18Z"/><path class="cls-3" d="M228.94,49.87l-8.37,11.19a4.66,4.66,0,0,0-1.86-1.21,7.68,7.68,0,0,0-2.7-.45,5.69,5.69,0,0,0-4.39,1.7,7.12,7.12,0,0,0-1.57,5v22H195.63V47.63h14.42v2.58a17.17,17.17,0,0,1,15.29-2.66A9.06,9.06,0,0,1,228.94,49.87Z"/><path class="cls-3" d="M238.8,42.91a7.2,7.2,0,0,1-5.38-2.2,7.53,7.53,0,0,1-2.16-5.51,7.58,7.58,0,0,1,2.16-5.47,7.74,7.74,0,0,1,10.89,0,7.68,7.68,0,0,1,2.12,5.47,7.62,7.62,0,0,1-2.12,5.51A7.26,7.26,0,0,1,238.8,42.91Zm-7.21,45.24V47.63H246.1V88.15Z"/><path class="cls-3" d="M274.52,89.06a24.56,24.56,0,0,1-11.64-2.73,20.86,20.86,0,0,1-8.17-7.54,21.3,21.3,0,0,1,0-21.8A21.58,21.58,0,0,1,263,49.41a24.41,24.41,0,0,1,11.72-2.77,22.77,22.77,0,0,1,8.62,1.57,22.16,22.16,0,0,1,7.13,4.72l-9.12,9.12a8.09,8.09,0,0,0-2.85-1.86,10.4,10.4,0,0,0-3.78-.63,8.47,8.47,0,0,0-4.18,1,7.94,7.94,0,0,0-3,2.86,8.35,8.35,0,0,0,7.16,12.76,9.58,9.58,0,0,0,4-.75,8.32,8.32,0,0,0,2.9-2.15l9.2,9.12a23.81,23.81,0,0,1-7.33,5A22.9,22.9,0,0,1,274.52,89.06Z"/><path class="cls-3" d="M314.88,89.06a24,24,0,0,1-11.65-2.77,21.25,21.25,0,0,1-8.08-7.63,21.38,21.38,0,0,1,0-21.71,21.12,21.12,0,0,1,8.08-7.54,24,24,0,0,1,11.6-2.77,23.78,23.78,0,0,1,11.56,2.77A21.49,21.49,0,0,1,334.43,57a20,20,0,0,1,3,10.82,20.58,20.58,0,0,1-2.95,10.89,20.9,20.9,0,0,1-8,7.63A23.81,23.81,0,0,1,314.88,89.06Zm-.09-12.84a8.12,8.12,0,0,0,4.19-1,7.15,7.15,0,0,0,2.77-2.94,9.26,9.26,0,0,0,1-4.39,8.8,8.8,0,0,0-1-4.35,7.58,7.58,0,0,0-2.77-2.9,8.63,8.63,0,0,0-8.29,0,7.38,7.38,0,0,0-2.82,2.94,10,10,0,0,0,0,8.66,7,7,0,0,0,2.82,2.94A8.14,8.14,0,0,0,314.79,76.22Z"/></g></g></svg>